<?xml version="1.0" standalone="no"?>
<!DOCTYPE svg PUBLIC "-//W3C//DTD SVG 20010904//EN"
 "http://www.w3.org/TR/2001/REC-SVG-20010904/DTD/svg10.dtd">
<svg version="1.0" xmlns="http://www.w3.org/2000/svg"
 width="1280.000000pt" height="1280.000000pt" viewBox="0 0 1280.000000 1280.000000"
 preserveAspectRatio="xMidYMid meet">
<metadata>
Created by potrace 1.16, written by Peter Selinger 2001-2019
</metadata>
<g transform="translate(0.000000,1280.000000) scale(0.100000,-0.100000)"
fill="#000000" stroke="none">
<path d="M0 6400 l0 -6400 6400 0 6400 0 0 6400 0 6400 -6400 0 -6400 0 0
-6400z m5335 3001 c378 -58 712 -185 1000 -379 267 -180 457 -378 672 -699 73
-111 101 -161 91 -166 -116 -60 -205 -109 -339 -188 -91 -53 -247 -141 -345
-194 -98 -54 -205 -113 -237 -132 -32 -19 -64 -32 -72 -30 -7 3 -32 39 -56 79
-184 319 -438 542 -727 638 -146 48 -268 63 -465 57 -190 -6 -295 -27 -438
-86 -328 -137 -611 -457 -742 -841 -94 -274 -121 -450 -121 -770 1 -302 36
-530 115 -764 104 -304 309 -544 566 -663 126 -58 225 -76 393 -70 123 4 158
8 230 32 341 110 539 351 619 754 12 57 21 112 21 122 0 18 -19 19 -645 19
l-645 0 0 460 0 460 1235 0 1235 0 0 -352 c0 -454 -18 -664 -76 -908 -145
-612 -471 -1060 -997 -1369 -607 -356 -1339 -372 -1992 -44 -249 126 -533 364
-716 603 -192 250 -344 571 -433 913 -106 405 -126 990 -50 1432 48 282 163
619 286 839 261 465 611 799 1083 1031 253 124 547 207 835 235 152 15 569 4
715 -19z m4299 -83 c4 -18 54 -195 112 -393 59 -198 122 -416 141 -485 19 -69
54 -190 78 -270 24 -80 50 -170 58 -200 8 -30 58 -203 111 -385 166 -573 250
-868 371 -1295 64 -228 160 -563 212 -745 97 -336 139 -483 243 -865 33 -118
77 -276 98 -350 l39 -135 -600 -3 c-330 -1 -601 -1 -603 0 -2 3 -118 418 -144
518 l-16 65 -939 3 c-516 1 -942 -1 -946 -5 -7 -7 -124 -371 -170 -528 l-15
-50 -608 -3 c-484 -2 -607 0 -604 10 16 60 496 1500 502 1505 2 3 577 7 1278
10 700 3 1274 6 1275 7 1 1 -4 24 -12 51 -8 28 -53 187 -100 355 -90 316 -112
396 -215 765 -34 121 -82 292 -107 380 -25 88 -69 248 -99 355 -90 329 -101
366 -107 350 -3 -8 -20 -64 -37 -125 -49 -173 -202 -668 -295 -955 -30 -91
-88 -275 -130 -410 -43 -135 -87 -276 -100 -315 l-22 -70 -594 -5 c-327 -3
-596 -4 -598 -3 -2 2 28 101 67 220 40 120 124 378 188 573 217 662 804 2422
815 2441 9 18 33 19 738 19 l729 0 6 -32z m1696 -8784 l42 -75 44 75 c64 109
74 103 74 -39 0 -70 -4 -115 -10 -115 -6 0 -10 37 -10 90 0 50 -3 90 -7 90 -5
0 -22 -26 -39 -58 -40 -75 -58 -75 -104 3 l-35 60 -3 -93 c-2 -73 -6 -92 -17
-92 -12 0 -15 21 -15 115 0 107 1 115 19 115 14 0 32 -22 61 -76z m948 29 c38
-91 65 -173 58 -180 -9 -9 -27 10 -30 33 -2 16 -13 19 -63 22 -60 3 -61 2 -71
-28 -10 -29 -32 -42 -32 -19 0 6 18 57 41 115 48 122 65 132 97 57z m-598 -45
c11 -12 20 -32 20 -45 0 -21 -4 -23 -60 -23 -44 0 -60 -4 -60 -14 0 -24 28
-39 65 -33 44 7 54 -8 15 -22 -80 -27 -142 65 -89 133 27 34 79 36 109 4z
m324 0 c10 -14 16 -44 16 -80 0 -54 -10 -72 -26 -47 -4 8 -9 8 -17 0 -16 -16
-73 -13 -87 4 -7 8 -10 25 -6 39 6 24 30 36 79 36 20 0 27 5 27 20 0 24 -39
36 -68 21 -23 -12 -36 -3 -21 16 19 22 85 16 103 -9z"/>
</g>
</svg>
